<svg width="139" height="24" viewBox="0 0 139 24" fill="none" xmlns="http://www.w3.org/2000/svg">
<path d="M9.17188 14.9688H6.20312V23H0.71875V0.25H9.67188C12.3698 0.25 14.4792 0.848958 16 2.04688C17.5208 3.24479 18.2812 4.9375 18.2812 7.125C18.2812 8.70833 17.9583 10.0208 17.3125 11.0625C16.6771 12.1042 15.6771 12.9479 14.3125 13.5938L19.0625 22.7656V23H13.1875L9.17188 14.9688ZM6.20312 10.7344H9.67188C10.7135 10.7344 11.4948 10.4635 12.0156 9.92188C12.5469 9.36979 12.8125 8.60417 12.8125 7.625C12.8125 6.64583 12.5469 5.88021 12.0156 5.32812C11.4844 4.76562 10.7031 4.48438 9.67188 4.48438H6.20312V10.7344ZM22.6875 14.3906C22.6875 12.7031 23.0156 11.2031 23.6719 9.89062C24.3281 8.56771 25.2708 7.55208 26.5 6.84375C27.7292 6.13542 29.1719 5.78125 30.8281 5.78125C33.3594 5.78125 35.3542 6.56771 36.8125 8.14062C38.2708 9.70312 39 11.8333 39 14.5312V14.7188C39 17.3542 38.2656 19.4479 36.7969 21C35.3385 22.5417 33.3594 23.3125 30.8594 23.3125C28.4531 23.3125 26.5208 22.5938 25.0625 21.1562C23.6042 19.7083 22.8177 17.75 22.7031 15.2812L22.6875 14.3906ZM27.9531 14.7188C27.9531 16.2812 28.1979 17.4271 28.6875 18.1562C29.1771 18.8854 29.901 19.25 30.8594 19.25C32.7344 19.25 33.6927 17.8073 33.7344 14.9219V14.3906C33.7344 11.3594 32.7656 9.84375 30.8281 9.84375C29.0677 9.84375 28.1146 11.151 27.9688 13.7656L27.9531 14.7188ZM42.6562 14.3906C42.6562 12.7031 42.9844 11.2031 43.6406 9.89062C44.2969 8.56771 45.2396 7.55208 46.4688 6.84375C47.6979 6.13542 49.1406 5.78125 50.7969 5.78125C53.3281 5.78125 55.3229 6.56771 56.7812 8.14062C58.2396 9.70312 58.9688 11.8333 58.9688 14.5312V14.7188C58.9688 17.3542 58.2344 19.4479 56.7656 21C55.3073 22.5417 53.3281 23.3125 50.8281 23.3125C48.4219 23.3125 46.4896 22.5938 45.0312 21.1562C43.5729 19.7083 42.7865 17.75 42.6719 15.2812L42.6562 14.3906ZM47.9219 14.7188C47.9219 16.2812 48.1667 17.4271 48.6562 18.1562C49.1458 18.8854 49.8698 19.25 50.8281 19.25C52.7031 19.25 53.6615 17.8073 53.7031 14.9219V14.3906C53.7031 11.3594 52.7344 9.84375 50.7969 9.84375C49.0365 9.84375 48.0833 11.151 47.9375 13.7656L47.9219 14.7188ZM68.2656 6.09375L68.4375 8.07812C69.6354 6.54688 71.2448 5.78125 73.2656 5.78125C75.401 5.78125 76.8438 6.63021 77.5938 8.32812C78.7396 6.63021 80.3958 5.78125 82.5625 5.78125C85.9896 5.78125 87.75 7.85417 87.8438 12V23H82.5625V12.3281C82.5625 11.4635 82.4167 10.8333 82.125 10.4375C81.8333 10.0417 81.3021 9.84375 80.5312 9.84375C79.4896 9.84375 78.7135 10.3073 78.2031 11.2344L78.2188 11.4531V23H72.9375V12.3594C72.9375 11.474 72.7969 10.8333 72.5156 10.4375C72.2344 10.0417 71.6979 9.84375 70.9062 9.84375C69.8958 9.84375 69.125 10.3073 68.5938 11.2344V23H63.3281V6.09375H68.2656ZM96.1094 17.8906C96.9427 17.8906 97.6354 18.1406 98.1875 18.6406C98.7396 19.1302 99.0156 19.7604 99.0156 20.5312C99.0156 21.3021 98.7396 21.9375 98.1875 22.4375C97.6354 22.9271 96.9427 23.1719 96.1094 23.1719C95.2656 23.1719 94.5677 22.9219 94.0156 22.4219C93.474 21.9219 93.2031 21.2917 93.2031 20.5312C93.2031 19.7708 93.474 19.1406 94.0156 18.6406C94.5677 18.1406 95.2656 17.8906 96.1094 17.8906ZM114.609 21.1719C113.495 22.599 111.99 23.3125 110.094 23.3125C108.24 23.3125 106.833 22.776 105.875 21.7031C104.927 20.6198 104.453 19.0677 104.453 17.0469V6.09375H109.719V17.0781C109.719 18.526 110.422 19.25 111.828 19.25C113.036 19.25 113.896 18.8177 114.406 17.9531V6.09375H119.703V23H114.766L114.609 21.1719ZM133.453 18.25C133.453 17.8021 133.219 17.4427 132.75 17.1719C132.281 16.901 131.391 16.6198 130.078 16.3281C128.766 16.0365 127.682 15.6562 126.828 15.1875C125.974 14.7083 125.323 14.1302 124.875 13.4531C124.427 12.776 124.203 12 124.203 11.125C124.203 9.57292 124.844 8.29688 126.125 7.29688C127.406 6.28646 129.083 5.78125 131.156 5.78125C133.385 5.78125 135.177 6.28646 136.531 7.29688C137.885 8.30729 138.562 9.63542 138.562 11.2812H133.281C133.281 9.92708 132.568 9.25 131.141 9.25C130.589 9.25 130.125 9.40625 129.75 9.71875C129.375 10.0208 129.188 10.401 129.188 10.8594C129.188 11.3281 129.417 11.7083 129.875 12C130.333 12.2917 131.062 12.5312 132.062 12.7188C133.073 12.9062 133.958 13.1302 134.719 13.3906C137.26 14.2656 138.531 15.8333 138.531 18.0938C138.531 19.6354 137.844 20.8906 136.469 21.8594C135.104 22.8281 133.333 23.3125 131.156 23.3125C129.708 23.3125 128.417 23.0521 127.281 22.5312C126.146 22.0104 125.26 21.3021 124.625 20.4062C123.99 19.5104 123.672 18.5677 123.672 17.5781H128.594C128.615 18.3594 128.875 18.9323 129.375 19.2969C129.875 19.651 130.516 19.8281 131.297 19.8281C132.016 19.8281 132.552 19.6823 132.906 19.3906C133.271 19.099 133.453 18.7188 133.453 18.25Z" fill="black"/>
</svg>
